<svg width="300" height="300" viewBox="0 0 161 346" fill="none" xmlns="http://www.w3.org/2000/svg">
<path d="M60.9162 339.324H33.24V52.6357L60.9162 9V339.324Z" fill="#51B27E" stroke="white" stroke-width="5" stroke-miterlimit="10"/>
<path d="M60.4327 343.287H33.2398C31.0543 343.287 29.2891 341.517 29.2891 339.324C29.2891 337.132 31.0543 335.361 33.2398 335.361H60.4327C62.6182 335.361 64.3834 337.132 64.3834 339.324C64.3834 341.517 62.6182 343.287 60.4327 343.287Z" fill="#51B27E" stroke="white" stroke-width="5" stroke-miterlimit="10"/>
<path d="M60.4327 253.023H33.2398C31.0543 253.023 29.2891 251.252 29.2891 249.059C29.2891 246.867 31.0543 245.096 33.2398 245.096H60.4327C62.6182 245.096 64.3834 246.867 64.3834 249.059C64.3834 251.252 62.6182 253.023 60.4327 253.023Z" fill="#51B27E" stroke="white" stroke-width="5" stroke-miterlimit="10"/>
<path d="M60.4327 162.758H33.2398C31.0543 162.758 29.2891 160.987 29.2891 158.795C29.2891 156.603 31.0543 154.832 33.2398 154.832H60.4327C62.6182 154.832 64.3834 156.603 64.3834 158.795C64.3834 160.966 62.6182 162.758 60.4327 162.758Z" fill="#51B27E" stroke="white" stroke-width="5" stroke-miterlimit="10"/>
<path d="M60.4327 72.4721H33.2398C31.0543 72.4721 29.2891 70.7014 29.2891 68.5091C29.2891 66.3167 31.0543 64.546 33.2398 64.546H60.4327C62.6182 64.546 64.3834 66.3167 64.3834 68.5091C64.3834 70.7014 62.6182 72.4721 60.4327 72.4721Z" fill="#51B27E" stroke="white" stroke-width="5" stroke-miterlimit="10"/>
<path d="M90.6098 38.2381C90.6098 38.2381 64.3835 35.7928 64.3835 64.546C93.0474 64.546 90.6098 38.2381 90.6098 38.2381Z" fill="#51B27E" stroke="white" stroke-width="5" stroke-miterlimit="10"/>
<path d="M29.2262 158.732C29.2262 158.732 31.6639 132.424 3 132.424C3 161.177 29.2262 158.732 29.2262 158.732Z" fill="#51B27E" stroke="white" stroke-width="5" stroke-miterlimit="10"/>
<path d="M90.6098 222.752C90.6098 222.752 64.3835 220.306 64.3835 249.06C93.0474 249.06 90.6098 222.752 90.6098 222.752Z" fill="#51B27E" stroke="white" stroke-width="5" stroke-miterlimit="10"/>
<path d="M128.163 339.935H100.487V96.6929L128.163 59.6553V339.935Z" fill="#51B27E" stroke="white" stroke-width="5" stroke-miterlimit="10"/>
<path d="M128.268 343.287H99.8772C98.0279 343.287 96.5149 341.769 96.5149 339.914C96.5149 338.059 98.0279 336.542 99.8772 336.542H128.268C130.117 336.542 131.63 338.059 131.63 339.914C131.63 341.791 130.117 343.287 128.268 343.287Z" fill="#51B27E" stroke="white" stroke-width="5" stroke-miterlimit="10"/>
<path d="M128.268 266.703H99.8772C98.0279 266.703 96.5149 265.186 96.5149 263.331C96.5149 261.476 98.0279 259.958 99.8772 259.958H128.268C130.117 259.958 131.63 261.476 131.63 263.331C131.63 265.207 130.117 266.703 128.268 266.703Z" fill="#51B27E" stroke="white" stroke-width="5" stroke-miterlimit="10"/>
<path d="M128.268 190.12H99.8772C98.0279 190.12 96.5149 188.602 96.5149 186.747C96.5149 184.892 98.0279 183.374 99.8772 183.374H128.268C130.117 183.374 131.63 184.892 131.63 186.747C131.63 188.602 130.117 190.12 128.268 190.12Z" fill="#51B27E" stroke="white" stroke-width="5" stroke-miterlimit="10"/>
<path d="M128.268 113.536H99.8772C98.0279 113.536 96.5149 112.018 96.5149 110.163C96.5149 108.308 98.0279 106.79 99.8772 106.79H128.268C130.117 106.79 131.63 108.308 131.63 110.163C131.63 112.018 130.117 113.536 128.268 113.536Z" fill="#51B27E" stroke="white" stroke-width="5" stroke-miterlimit="10"/>
<path d="M157.857 84.4666C157.857 84.4666 131.63 82.3797 131.63 106.79C160.294 106.79 157.857 84.4666 157.857 84.4666Z" fill="#51B27E" stroke="white" stroke-width="5" stroke-miterlimit="10"/>
<path d="M96.4728 186.705C96.4728 186.705 98.9105 164.381 70.2466 164.381C70.2466 188.792 96.4728 186.705 96.4728 186.705Z" fill="#51B27E" stroke="white" stroke-width="5" stroke-miterlimit="10"/>
<path d="M157.857 241.028C157.857 241.028 131.63 238.941 131.63 263.352C160.294 263.331 157.857 241.028 157.857 241.028Z" fill="#51B27E" stroke="white" stroke-width="5" stroke-miterlimit="10"/>
</svg>
