<svg width="302" height="276" viewBox="0 0 302 276" fill="none" xmlns="http://www.w3.org/2000/svg">

    <g>
    <path d="M176 3.38086H126V34.069H176V3.38086Z" fill="#AF75BD" stroke="white" stroke-width="5" stroke-miterlimit="10"/>
    <path d="M176 34.069C180.418 34.069 184 27.1992 184 18.7249C184 10.2506 180.418 3.38086 176 3.38086C171.582 3.38086 168 10.2506 168 18.7249C168 27.1992 171.582 34.069 176 34.069Z" fill="#AF75BD" stroke="white" stroke-width="5" stroke-miterlimit="10"/>
    <path d="M125.5 34.069C129.642 34.069 133 27.1992 133 18.7249C133 10.2506 129.642 3.38086 125.5 3.38086C121.358 3.38086 118 10.2506 118 18.7249C118 27.1992 121.358 34.069 125.5 34.069Z" fill="#AF75BD" stroke="white" stroke-width="5" stroke-miterlimit="10"/>
    </g>

    <g>
    <path d="M176 82.978H126V113.666H176V82.978Z" fill="#AF75BD" stroke="white" stroke-width="5" stroke-miterlimit="10"/>
    <path d="M176 113.666C180.418 113.666 184 106.796 184 98.322C184 89.8478 180.418 82.978 176 82.978C171.582 82.978 168 89.8478 168 98.322C168 106.796 171.582 113.666 176 113.666Z" fill="#AF75BD" stroke="white" stroke-width="5" stroke-miterlimit="10"/>
    <path d="M125.5 113.666C129.642 113.666 133 106.796 133 98.322C133 89.8478 129.642 82.978 125.5 82.978C121.358 82.978 118 89.8478 118 98.322C118 106.796 121.358 113.666 125.5 113.666Z" fill="#AF75BD" stroke="white" stroke-width="5" stroke-miterlimit="10"/>
    <path d="M176 162.575H126V193.263H176V162.575Z" fill="#AF75BD" stroke="white" stroke-width="5" stroke-miterlimit="10"/>
    </g>

    <g>
    <path d="M176 193.263C180.418 193.263 184 186.393 184 177.919C184 169.445 180.418 162.575 176 162.575C171.582 162.575 168 169.445 168 177.919C168 186.393 171.582 193.263 176 193.263Z" fill="#AF75BD" stroke="white" stroke-width="5" stroke-miterlimit="10"/>
    <path d="M125.5 193.263C129.642 193.263 133 186.393 133 177.919C133 169.445 129.642 162.575 125.5 162.575C121.358 162.575 118 169.445 118 177.919C118 186.393 121.358 193.263 125.5 193.263Z" fill="#AF75BD" stroke="white" stroke-width="5" stroke-miterlimit="10"/>
    <path d="M176 242.172H126V272.861H176V242.172Z" fill="#AF75BD" stroke="white" stroke-width="5" stroke-miterlimit="10"/>
    </g>

    <g>
    <path d="M176 272.861C180.418 272.861 184 265.991 184 257.516C184 249.042 180.418 242.172 176 242.172C171.582 242.172 168 249.042 168 257.516C168 265.991 171.582 272.861 176 272.861Z" fill="#AF75BD" stroke="white" stroke-width="5" stroke-miterlimit="10"/>
    <path d="M125.5 272.861C129.642 272.861 133 265.991 133 257.516C133 249.042 129.642 242.172 125.5 242.172C121.358 242.172 118 249.042 118 257.516C118 265.991 121.358 272.861 125.5 272.861Z" fill="#AF75BD" stroke="white" stroke-width="5" stroke-miterlimit="10"/>
    <path d="M61 3.38086H11V34.069H61V3.38086Z" fill="#AF75BD" stroke="white" stroke-width="5" stroke-miterlimit="10"/>
    </g>

    <g>
    <path d="M61 34.069C65.4183 34.069 69 27.1992 69 18.7249C69 10.2506 65.4183 3.38086 61 3.38086C56.5817 3.38086 53 10.2506 53 18.7249C53 27.1992 56.5817 34.069 61 34.069Z" fill="#AF75BD" stroke="white" stroke-width="5" stroke-miterlimit="10"/>
    <path d="M10.5 34.069C14.6421 34.069 18 27.1992 18 18.7249C18 10.2506 14.6421 3.38086 10.5 3.38086C6.35786 3.38086 3 10.2506 3 18.7249C3 27.1992 6.35786 34.069 10.5 34.069Z" fill="#AF75BD" stroke="white" stroke-width="5" stroke-miterlimit="10"/>
    <path d="M61 82.978H11V113.666H61V82.978Z" fill="#AF75BD" stroke="white" stroke-width="5" stroke-miterlimit="10"/>
    </g>

    <g>
    <path d="M61 113.666C65.4183 113.666 69 106.796 69 98.322C69 89.8478 65.4183 82.978 61 82.978C56.5817 82.978 53 89.8478 53 98.322C53 106.796 56.5817 113.666 61 113.666Z" fill="#AF75BD" stroke="white" stroke-width="5" stroke-miterlimit="10"/>
    <path d="M10.5 113.666C14.6421 113.666 18 106.796 18 98.322C18 89.8478 14.6421 82.978 10.5 82.978C6.35786 82.978 3 89.8478 3 98.322C3 106.796 6.35786 113.666 10.5 113.666Z" fill="#AF75BD" stroke="white" stroke-width="5" stroke-miterlimit="10"/>
    <path d="M61 162.575H11V193.263H61V162.575Z" fill="#AF75BD" stroke="white" stroke-width="5" stroke-miterlimit="10"/>
    </g>

    <g>
    <path d="M61 193.263C65.4183 193.263 69 186.393 69 177.919C69 169.445 65.4183 162.575 61 162.575C56.5817 162.575 53 169.445 53 177.919C53 186.393 56.5817 193.263 61 193.263Z" fill="#AF75BD" stroke="white" stroke-width="5" stroke-miterlimit="10"/>
    <path d="M10.5 193.263C14.6421 193.263 18 186.393 18 177.919C18 169.445 14.6421 162.575 10.5 162.575C6.35786 162.575 3 169.445 3 177.919C3 186.393 6.35786 193.263 10.5 193.263Z" fill="#AF75BD" stroke="white" stroke-width="5" stroke-miterlimit="10"/>
    <path d="M61 242.172H11V272.861H61V242.172Z" fill="#AF75BD" stroke="white" stroke-width="5" stroke-miterlimit="10"/>
    </g>

    <g>
    <path d="M61 272.861C65.4183 272.861 69 265.991 69 257.516C69 249.042 65.4183 242.172 61 242.172C56.5817 242.172 53 249.042 53 257.516C53 265.991 56.5817 272.861 61 272.861Z" fill="#AF75BD" stroke="white" stroke-width="5" stroke-miterlimit="10"/>
    <path d="M10.5 272.861C14.6421 272.861 18 265.991 18 257.516C18 249.042 14.6421 242.172 10.5 242.172C6.35786 242.172 3 249.042 3 257.516C3 265.991 6.35786 272.861 10.5 272.861Z" fill="#AF75BD" stroke="white" stroke-width="5" stroke-miterlimit="10"/>
    <path d="M291 3.38086H241V34.069H291V3.38086Z" fill="#AF75BD" stroke="white" stroke-width="5" stroke-miterlimit="10"/>
    </g>

    <g>
    <path d="M291 34.069C295.418 34.069 299 27.1992 299 18.7249C299 10.2506 295.418 3.38086 291 3.38086C286.582 3.38086 283 10.2506 283 18.7249C283 27.1992 286.582 34.069 291 34.069Z" fill="#AF75BD" stroke="white" stroke-width="5" stroke-miterlimit="10"/>
    <path d="M240.5 34.069C244.642 34.069 248 27.1992 248 18.7249C248 10.2506 244.642 3.38086 240.5 3.38086C236.358 3.38086 233 10.2506 233 18.7249C233 27.1992 236.358 34.069 240.5 34.069Z" fill="#AF75BD" stroke="white" stroke-width="5" stroke-miterlimit="10"/>
    <path d="M291 82.978H241V113.666H291V82.978Z" fill="#AF75BD" stroke="white" stroke-width="5" stroke-miterlimit="10"/>
    </g>

    <g>
    <path d="M291 113.666C295.418 113.666 299 106.796 299 98.322C299 89.8478 295.418 82.978 291 82.978C286.582 82.978 283 89.8478 283 98.322C283 106.796 286.582 113.666 291 113.666Z" fill="#AF75BD" stroke="white" stroke-width="5" stroke-miterlimit="10"/>
    <path d="M240.5 113.666C244.642 113.666 248 106.796 248 98.322C248 89.8478 244.642 82.978 240.5 82.978C236.358 82.978 233 89.8478 233 98.322C233 106.796 236.358 113.666 240.5 113.666Z" fill="#AF75BD" stroke="white" stroke-width="5" stroke-miterlimit="10"/>
    <path d="M291 162.575H241V193.263H291V162.575Z" fill="#AF75BD" stroke="white" stroke-width="5" stroke-miterlimit="10"/>
    </g>

    <g>
    <path d="M291 193.263C295.418 193.263 299 186.393 299 177.919C299 169.445 295.418 162.575 291 162.575C286.582 162.575 283 169.445 283 177.919C283 186.393 286.582 193.263 291 193.263Z" fill="#AF75BD" stroke="white" stroke-width="5" stroke-miterlimit="10"/>
    <path d="M240.5 193.263C244.642 193.263 248 186.393 248 177.919C248 169.445 244.642 162.575 240.5 162.575C236.358 162.575 233 169.445 233 177.919C233 186.393 236.358 193.263 240.5 193.263Z" fill="#AF75BD" stroke="white" stroke-width="5" stroke-miterlimit="10"/>
    <path d="M291 242.172H241V272.861H291V242.172Z" fill="#AF75BD" stroke="white" stroke-width="5" stroke-miterlimit="10"/>
    </g>

    <g>
    <path d="M291 272.861C295.418 272.861 299 265.991 299 257.516C299 249.042 295.418 242.172 291 242.172C286.582 242.172 283 249.042 283 257.516C283 265.991 286.582 272.861 291 272.861Z" fill="#AF75BD" stroke="white" stroke-width="5" stroke-miterlimit="10"/>
    <path d="M240.5 272.861C244.642 272.861 248 265.991 248 257.516C248 249.042 244.642 242.172 240.5 242.172C236.358 242.172 233 249.042 233 257.516C233 265.991 236.358 272.861 240.5 272.861Z" fill="#AF75BD" stroke="white" stroke-width="5" stroke-miterlimit="10"/>
    </g>

</svg>

