<svg width="235" height="184" viewBox="0 0 235 184" fill="none" xmlns="http://www.w3.org/2000/svg">

    <g>
    <path d="M123 180.796C174.362 180.796 216 141.081 216 92.0887C216 43.0969 174.362 3.3811 123 3.3811C71.6375 3.3811 30 43.0969 30 92.0887C30 141.081 71.6375 180.796 123 180.796Z" fill="#3884FF" stroke="white" stroke-width="5" stroke-miterlimit="10"/>
    <path d="M122.464 3.3811L112.337 10.1937L98 16.0793L112.848 28.3295L106.702 36.1735L122.464 49.4133L141 18.5273L132.809 10.6833L122.464 3.3811Z" fill="#51B27E" stroke="white" stroke-width="5" stroke-miterlimit="10"/>
    <path d="M90.145 9.13501L83.061 21.9995L95.3088 29.8179L89.1795 40.5642L95.3088 47.8946L113.176 51.3106L122.766 64.5073L115.215 79.168L70.8025 82.096L63.6643 96.2688L56.5153 89.4264L51.9156 96.2688C51.9156 96.2688 40.731 86.5607 41.1975 87.9624C42.0436 90.5166 44.7666 99.6848 44.7666 99.6848L57.0143 112.393L88.6696 119.236L103.987 147.571H122.766C122.766 147.571 128.993 154.901 130.533 154.901C132.074 154.901 147.381 154.901 147.381 154.901L153 157.341L122.777 180.796C122.777 180.796 93.6598 179.592 79.0906 170.33L72.1802 161.339L62.4167 156.853L53.4235 147.509L54.5734 142.379L47.2942 130.408L46.8169 116.453L38.4854 105.645L37.8128 96.03L35.7191 83.6535L34.0918 88.4193L31.0001 80.0817C30.9892 80.0714 32.0198 31.8218 90.145 9.13501Z" fill="#51B27E" stroke="white" stroke-width="5" stroke-miterlimit="10"/>
    <path d="M173.055 16.8069L172.011 23.158L182.247 33.2882L179.429 46.1374L187.62 56.0157L183.008 65.1591L189.915 77.7564L185.303 92.3481L191.96 104.179L185.564 119.495L194.005 125.174L209.876 111.097L213.846 111.128C213.846 111.128 230.348 50.7249 172 16.8174" fill="#51B27E"/>
    <path d="M173.055 16.8069L172.011 23.158L182.247 33.2882L179.429 46.1374L187.62 56.0157L183.008 65.1591L189.915 77.7564L185.303 92.3481L191.96 104.179L185.564 119.495L194.005 125.174L209.876 111.097L213.846 111.128C213.846 111.128 230.348 50.7249 172 16.8174" stroke="white" stroke-width="5" stroke-miterlimit="10"/>
    </g>
   
    <path d="M23.0314 26.3811C23.0314 26.3811 48.4414 26.3811 66.0914 26.3811C83.7414 26.3811 83.0314 40.5211 66.0914 40.5211C49.1514 40.5211 60.4414 40.5211 49.1514 40.5211C37.8614 40.5211 32.9114 47.6411 49.1514 47.6411C65.3914 47.6411 66.0914 56.0511 49.1514 56.0511C32.2114 56.0511 18.8014 56.0511 9.62143 56.0511C0.441425 56.0511 1.15143 41.2211 9.62143 41.2211C9.62143 41.2111 1.86143 26.3811 23.0314 26.3811Z" fill="white" stroke="white" stroke-width="5" stroke-miterlimit="10"/>
    <path d="M42.0314 115.381C42.0314 115.381 67.4414 115.381 85.0914 115.381C102.741 115.381 102.031 129.521 85.0914 129.521C68.1514 129.521 79.4414 129.521 68.1514 129.521C56.8614 129.521 51.9114 136.641 68.1514 136.641C84.3914 136.641 85.0914 145.051 68.1514 145.051C51.2114 145.051 37.8014 145.051 28.6214 145.051C19.4414 145.051 20.1514 130.221 28.6214 130.221C28.6214 130.211 20.8614 115.381 42.0314 115.381Z" fill="white" stroke="white" stroke-width="5" stroke-miterlimit="10"/>
    <path d="M161.031 19.3811C161.031 19.3811 186.441 19.3811 204.091 19.3811C221.741 19.3811 221.031 33.5211 204.091 33.5211C187.151 33.5211 198.441 33.5211 187.151 33.5211C175.861 33.5211 170.911 40.6411 187.151 40.6411C203.391 40.6411 204.091 49.0511 187.151 49.0511C170.211 49.0511 156.801 49.0511 147.621 49.0511C138.441 49.0511 139.151 34.2211 147.621 34.2211C147.621 34.2111 139.861 19.3811 161.031 19.3811Z" fill="white" stroke="white" stroke-width="5" stroke-miterlimit="10"/>
    <path d="M176.031 125.381C176.031 125.381 201.441 125.381 219.091 125.381C236.741 125.381 236.031 139.521 219.091 139.521C202.151 139.521 213.441 139.521 202.151 139.521C190.861 139.521 185.911 146.641 202.151 146.641C218.391 146.641 219.091 155.051 202.151 155.051C185.211 155.051 171.801 155.051 162.621 155.051C153.441 155.051 154.151 140.221 162.621 140.221C162.621 140.211 154.861 125.381 176.031 125.381Z" fill="white" stroke="white" stroke-width="5" stroke-miterlimit="10"/>

</svg>
