<svg width="269" height="307" viewBox="0 0 269 307" fill="none" xmlns="http://www.w3.org/2000/svg">

    <path d="M49.5583 12.3367C54.883 5.291 71.6027 -4.57296 89.4938 12.3367C119.845 5.22215 118.388 28.4485 109.179 38.3516C100.676 47.4963 86.2989 38.3516 81.5067 38.3516C76.7144 38.3516 67.1295 54 54.3506 54C44.1274 54 39.18 44.3133 39.7122 38.3516C35.4526 41.0614 15.4307 39.3666 7.7631 32.8629C-1.82141 24.7332 3.86768 5.22208 17.6092 5.22215C29.3041 5.22222 45.2985 6.91693 49.5583 12.3367Z" fill="#AF75BD" stroke="white" stroke-width="5"/>

    <g>
    <path d="M89.8223 220.341V294.383" stroke="white" stroke-width="5"/>
    <path d="M23.0801 232.855H89.8221" stroke="white" stroke-width="5"/>
    <path d="M23.0801 244.326V232.855H38.7227L42.8941 66H70.0081L75.2223 232.855H89.8221V220.341H82.5222V209.913H165.95V182.799H157.607V171.327H266.063V182.799H256.677V293.34H34.5514V244.326H23.0801Z" fill="#36B9C5" stroke="white" stroke-width="5"/>
    <path d="M116.792 292.297L116.792 277.698L116.792 261.349C116.792 260.433 116.918 259.522 117.166 258.641L117.398 257.816C120.022 248.486 133.158 248.237 136.134 257.461V257.461C136.447 258.432 136.606 259.446 136.606 260.466L136.606 277.698L136.606 292.297" stroke="white" stroke-width="5"/>
    <path d="M181.448 294.383L181.448 279.783L181.448 263.434C181.448 262.519 181.574 261.608 181.822 260.727L182.054 259.902C184.678 250.571 197.814 250.323 200.79 259.547V259.547C201.103 260.518 201.262 261.531 201.262 262.552L201.262 279.783L201.262 294.383" stroke="white" stroke-width="5"/>
    <path d="M221.076 294.383L221.076 279.783L221.076 263.434C221.076 262.519 221.202 261.608 221.45 260.727L221.682 259.902C224.306 250.571 237.442 250.323 240.418 259.547V259.547C240.731 260.518 240.89 261.531 240.89 262.552L240.89 279.783L240.89 294.383" stroke="white" stroke-width="5"/>
    <path d="M88.7794 220.341H164.907M165.95 294.383V209.913M157.607 182.799H266.063M24.123 243.284H88.7794" stroke="white" stroke-width="5"/>
    <path d="M170.121 170.284C184.721 139.347 221.846 96.0339 253.549 170.284" stroke="white" stroke-width="5"/>
    <path d="M97.1221 207.827C97.1221 186.97 157.607 186.97 157.607 207.827" stroke="white" stroke-width="5"/>
    <circle cx="211.834" cy="211.998" r="12.0998" stroke="white" stroke-width="5"/>
    <path d="M56.4512 66V233.898" stroke="white" stroke-width="5"/>
    <rect x="53.7363" y="279.155" width="13.7712" height="11.6855" stroke="white" stroke-width="5"/>
    </g>

</svg>
