<svg width="173" height="167" viewBox="0 0 173 167" fill="none" xmlns="http://www.w3.org/2000/svg">

    <path d="M157.626 152.55C160.761 152.967 163.923 152.133 166.167 149.967C170.275 146.002 169.87 139.22 165.248 134.759C160.653 130.324 153.599 129.933 149.49 133.872C148.787 134.55 148.247 135.333 147.814 136.168L31.9968 24.3613C33.3482 23.9178 34.5916 23.1874 35.6186 22.1961C39.727 18.231 39.3216 11.4485 34.6997 6.98772C30.0778 2.52694 23.0503 2.16173 18.969 6.12687C16.4554 8.5529 15.6445 12.0485 16.4554 15.4136C12.9687 14.631 9.34683 15.4136 6.83317 17.8397C2.72483 21.8048 3.13025 28.5873 7.75215 33.0481C11.7254 36.8828 17.5635 37.6914 21.6989 35.2654L136.922 146.472C134.408 150.489 135.246 156.098 139.219 159.932C143.814 164.367 150.869 164.758 154.977 160.819C157.193 158.628 158.058 155.576 157.626 152.55Z" fill="#AF75BD" stroke="white" stroke-width="5" stroke-miterlimit="10"/>
    <path d="M14.4518 151.673C14.0166 154.678 14.8869 157.709 17.1442 159.86C21.2781 163.797 28.3492 163.409 32.9998 158.979C37.6232 154.574 38.0311 147.812 33.9245 143.874C33.2174 143.201 32.4015 142.683 31.5312 142.268L148.123 31.2016C148.585 32.497 149.346 33.6887 150.38 34.6732C154.514 38.6112 161.585 38.2226 166.235 33.7923C170.886 29.3621 171.267 22.6261 167.16 18.6881C164.631 16.2787 160.987 15.5015 157.478 16.2787C158.294 12.9366 157.478 9.46495 154.949 7.05553C150.815 3.11755 143.744 3.50617 139.093 7.93639C135.095 11.7448 134.252 17.3409 136.782 21.3048L20.7886 131.801C16.6003 129.392 10.7531 130.195 6.75517 134.004C2.13177 138.408 1.72382 145.17 5.83049 149.108C8.115 151.258 11.2698 152.087 14.4518 151.673Z" fill="#AF75BD" stroke="white" stroke-width="5" stroke-miterlimit="10"/>
    <path d="M29.9824 153.405C29.9824 153.405 42.4611 162.971 81.9998 162.971C121.539 162.971 134.017 153.405 134.017 153.405C134.017 95.7981 29.9824 95.7981 29.9824 153.405Z" stroke="white" stroke-width="5" stroke-miterlimit="10"/>

    <g>
    <path d="M65.9996 41.812C62.3329 45.9787 57.1996 56.512 65.9996 65.312C74.7996 74.112 69.6662 83.312 65.9996 86.812" stroke="white" stroke-width="5"/>
    <path d="M81.8589 41.812C78.1923 45.9787 73.0589 56.512 81.8589 65.312C90.6589 74.112 85.5256 83.312 81.8589 86.812" stroke="white" stroke-width="5"/>
    <path d="M97.8589 41.812C94.1923 45.9787 89.0589 56.512 97.8589 65.312C106.659 74.112 101.526 83.312 97.8589 86.812" stroke="white" stroke-width="5"/>
    </g>

</svg>
