<svg width="161" height="346" viewBox="0 0 161 346" fill="none" xmlns="http://www.w3.org/2000/svg">
<path d="M60.9164 339.324H33.2402V52.6357L60.9164 9V339.324Z" fill="#51B27E" stroke="white" stroke-width="5" stroke-miterlimit="10"/>
<path d="M60.4327 343.287H33.2398C31.0543 343.287 29.2891 341.517 29.2891 339.324C29.2891 337.132 31.0543 335.361 33.2398 335.361H60.4327C62.6182 335.361 64.3834 337.132 64.3834 339.324C64.3834 341.517 62.6182 343.287 60.4327 343.287Z" fill="#51B27E" stroke="white" stroke-width="5" stroke-miterlimit="10"/>
<path d="M60.4327 253.023H33.2398C31.0543 253.023 29.2891 251.252 29.2891 249.06C29.2891 246.867 31.0543 245.097 33.2398 245.097H60.4327C62.6182 245.097 64.3834 246.867 64.3834 249.06C64.3834 251.252 62.6182 253.023 60.4327 253.023Z" fill="#51B27E" stroke="white" stroke-width="5" stroke-miterlimit="10"/>
<path d="M60.4327 162.758H33.2398C31.0543 162.758 29.2891 160.987 29.2891 158.795C29.2891 156.603 31.0543 154.832 33.2398 154.832H60.4327C62.6182 154.832 64.3834 156.603 64.3834 158.795C64.3834 160.966 62.6182 162.758 60.4327 162.758Z" fill="#51B27E" stroke="white" stroke-width="5" stroke-miterlimit="10"/>
<path d="M60.4327 72.472H33.2398C31.0543 72.472 29.2891 70.7013 29.2891 68.5089C29.2891 66.3166 31.0543 64.5459 33.2398 64.5459H60.4327C62.6182 64.5459 64.3834 66.3166 64.3834 68.5089C64.3834 70.7013 62.6182 72.472 60.4327 72.472Z" fill="#51B27E" stroke="white" stroke-width="5" stroke-miterlimit="10"/>
<path d="M90.61 38.2382C90.61 38.2382 64.3838 35.7929 64.3838 64.5461C93.0477 64.5461 90.61 38.2382 90.61 38.2382Z" fill="#51B27E" stroke="white" stroke-width="5" stroke-miterlimit="10"/>
<path d="M29.2262 158.732C29.2262 158.732 31.6639 132.424 3 132.424C3 161.177 29.2262 158.732 29.2262 158.732Z" fill="#51B27E" stroke="white" stroke-width="5" stroke-miterlimit="10"/>
<path d="M90.61 222.752C90.61 222.752 64.3838 220.307 64.3838 249.06C93.0477 249.06 90.61 222.752 90.61 222.752Z" fill="#51B27E" stroke="white" stroke-width="5" stroke-miterlimit="10"/>
<path d="M128.163 339.935H100.487V96.6929L128.163 59.6553V339.935Z" fill="#51B27E" stroke="white" stroke-width="5" stroke-miterlimit="10"/>
<path d="M128.268 343.287H99.877C98.0277 343.287 96.5146 341.769 96.5146 339.914C96.5146 338.059 98.0277 336.542 99.877 336.542H128.268C130.117 336.542 131.63 338.059 131.63 339.914C131.63 341.79 130.117 343.287 128.268 343.287Z" fill="#51B27E" stroke="white" stroke-width="5" stroke-miterlimit="10"/>
<path d="M128.268 266.704H99.877C98.0277 266.704 96.5146 265.186 96.5146 263.331C96.5146 261.476 98.0277 259.958 99.877 259.958H128.268C130.117 259.958 131.63 261.476 131.63 263.331C131.63 265.207 130.117 266.704 128.268 266.704Z" fill="#51B27E" stroke="white" stroke-width="5" stroke-miterlimit="10"/>
<path d="M128.268 190.12H99.877C98.0277 190.12 96.5146 188.602 96.5146 186.747C96.5146 184.892 98.0277 183.374 99.877 183.374H128.268C130.117 183.374 131.63 184.892 131.63 186.747C131.63 188.602 130.117 190.12 128.268 190.12Z" fill="#51B27E" stroke="white" stroke-width="5" stroke-miterlimit="10"/>
<path d="M128.268 113.536H99.877C98.0277 113.536 96.5146 112.018 96.5146 110.163C96.5146 108.308 98.0277 106.79 99.877 106.79H128.268C130.117 106.79 131.63 108.308 131.63 110.163C131.63 112.018 130.117 113.536 128.268 113.536Z" fill="#51B27E" stroke="white" stroke-width="5" stroke-miterlimit="10"/>
<path d="M157.857 84.4664C157.857 84.4664 131.63 82.3794 131.63 106.79C160.294 106.79 157.857 84.4664 157.857 84.4664Z" fill="#51B27E" stroke="white" stroke-width="5" stroke-miterlimit="10"/>
<path d="M96.4728 186.705C96.4728 186.705 98.9105 164.381 70.2466 164.381C70.2466 188.792 96.4728 186.705 96.4728 186.705Z" fill="#51B27E" stroke="white" stroke-width="5" stroke-miterlimit="10"/>
<path d="M157.857 241.028C157.857 241.028 131.63 238.941 131.63 263.352C160.294 263.331 157.857 241.028 157.857 241.028Z" fill="#51B27E" stroke="white" stroke-width="5" stroke-miterlimit="10"/>
</svg>
