<svg width="414" height="234" viewBox="0 0 414 234" fill="none" xmlns="http://www.w3.org/2000/svg">
<path d="M322.111 62.7599C324.868 59.168 333.526 54.1393 342.791 62.7599C358.509 59.1329 357.754 70.9738 352.986 76.0224C348.582 80.6844 341.137 76.0224 338.655 76.0224C336.174 76.0224 331.21 84 324.592 84C319.298 84 316.736 79.0617 317.012 76.0224C314.806 77.4039 304.437 76.5398 300.467 73.2242C295.503 69.0797 298.449 59.1328 305.565 59.1329C311.622 59.1329 319.905 59.9969 322.111 62.7599Z" fill="#51B27E" stroke="white" stroke-width="5"/>
<path d="M142.714 144.11L156.145 205.409L149.419 213L169.637 211.721L165.05 206.038L166.223 144.11H142.714Z" stroke="white" stroke-width="5" stroke-miterlimit="10"/>
<path d="M248.82 139.359L262.271 199.953L255.546 207.457L275.743 206.193L271.177 200.575L272.329 139.359H248.82Z" stroke="white" stroke-width="5" stroke-miterlimit="10"/>
<path d="M188.641 143.318L202.466 203.931L195.543 211.416L216.355 210.172L211.634 204.553L212.841 143.318H188.641Z" stroke="white" stroke-width="5" stroke-miterlimit="10"/>
<path d="M224.273 139.359L238.12 199.953L231.197 207.457L251.988 206.193L247.288 200.575L248.473 139.359H224.273Z" stroke="white" stroke-width="5" stroke-miterlimit="10"/>
<path d="M168.523 58.1132C168.523 58.1132 183.488 46.384 191.584 53.5009C191.584 53.5009 203.427 45.3405 210.337 51.2051C210.337 51.2051 226.426 43.0238 229.985 50.9964C229.985 50.9964 248.801 44.9231 251.944 53.9391C251.944 53.9391 267.2 48.7006 268.678 62.3291C268.678 62.3291 284.767 63.9987 280.604 78.462C280.604 78.462 295.444 87.6868 289.595 103.611C289.595 103.611 299.836 130.659 285.62 131.703C285.62 131.703 283.539 158.125 265.139 151.613C265.139 151.613 255.732 160.421 244.659 156.643C244.659 156.643 231.067 176.345 216.436 165.45C216.436 165.45 205.779 177.263 193.853 168.727C193.853 168.727 172.103 175.927 166.462 159.982C166.462 159.982 145.565 166.473 145.128 149.923C145.128 149.923 125.896 144.475 132.994 132.934C132.994 132.934 116.905 115.528 129.019 108.411C129.019 108.411 115.219 80.7369 138.218 73.8287L168.523 58.1132Z" fill="#E67C20" stroke="white" stroke-width="5" stroke-miterlimit="10"/>
<path d="M129.506 34.9587C129.506 34.9587 130.448 24.3057 140.224 24.3057C140.224 24.3057 145.122 16.0039 150.314 21.1639C150.314 21.1639 157.724 16.2951 162.622 21.1639C162.622 21.1639 169.886 19.9363 169.886 26.9897C169.886 26.9897 176.417 26.3655 176.417 33.4814C176.417 33.4814 187.867 33.2317 191.321 37.3098C194.796 41.3879 178.552 48.1292 178.552 48.1292C178.552 48.1292 183.597 52.998 180.289 54.7041C180.289 54.7041 182.027 59.5729 179.18 60.9669C179.18 60.9669 179.473 66.1894 178.866 71.0581C178.384 74.9906 177.317 78.6525 175.077 79.1519C175.077 79.1519 175.077 86.5174 168.923 85.7268C168.923 85.7268 167.813 95.1313 159.629 91.8439C159.629 91.8439 152.846 96.6918 150.167 92.5513C150.167 92.5513 145.436 96.7126 143.238 90.9076C143.238 90.9076 136.142 92.3224 136.142 86.996C136.142 86.996 129.841 88.0987 131.097 81.9816C131.097 81.9816 124.483 79.3183 128.732 74.4496C128.732 74.4496 122.41 70.9957 127.308 66.4598C127.308 66.4598 122.578 63.4845 126.848 60.0306C126.848 60.0306 120.38 55.9733 126.513 52.5402C126.513 52.5402 121.343 49.0863 125.278 47.6923C125.278 47.6923 115 42.345 115 38.7247C115 35.1043 126.199 33.6895 129.506 34.9587Z" fill="#E67C20" stroke="white" stroke-width="5" stroke-miterlimit="10"/>
<path d="M142.318 49.0899C142.974 49.0899 143.506 48.5581 143.506 47.9021C143.506 47.2461 142.974 46.7144 142.318 46.7144C141.662 46.7144 141.131 47.2461 141.131 47.9021C141.131 48.5581 141.662 49.0899 142.318 49.0899Z" stroke="white" stroke-width="5" stroke-miterlimit="10"/>
<path d="M163.698 49.0899C164.354 49.0899 164.886 48.5581 164.886 47.9021C164.886 47.2461 164.354 46.7144 163.698 46.7144C163.042 46.7144 162.51 47.2461 162.51 47.9021C162.51 48.5581 163.042 49.0899 163.698 49.0899Z" stroke="white" stroke-width="5" stroke-miterlimit="10"/>
<path d="M149.049 56.2163H156.175" stroke="white" stroke-width="5" stroke-miterlimit="10"/>
</svg>
