<svg width="146" height="140" viewBox="0 0 146 140" fill="none" xmlns="http://www.w3.org/2000/svg">

    <path d="M86.9553 3H59.1005L33.3668 13.2248L13.6619 32.1218L3 56.8005V83.5133L13.6619 108.192L33.3668 127.089L59.1005 137.26H86.9553L112.689 127.089L132.394 108.192L143 83.5133V56.8005L132.394 32.1218L112.689 13.2248L86.9553 3Z" fill="#E67C20" stroke="white" stroke-width="5" stroke-miterlimit="10"/>
    <path d="M95.4262 51.2713C92.3115 48.8941 85.4024 45.1963 73 45.1963C60.5976 45.1963 53.6885 48.8941 50.5738 51.2713H35C35 64.4251 48.4784 59.8292 48.4784 59.8292C47.7988 86.9291 58.9553 93.5324 73 95.0643C87.0447 93.4795 98.2012 86.8763 97.5216 59.8292C97.5216 59.8292 111 64.4251 111 51.2713H95.4262Z" fill="#E67C20" stroke="white" stroke-width="5" stroke-miterlimit="10"/>

</svg>
