<svg width="173" height="166" viewBox="0 0 173 166" fill="none" xmlns="http://www.w3.org/2000/svg">

    <path d="M157.626 152.169C160.761 152.586 163.923 151.752 166.167 149.586C170.275 145.621 169.87 138.839 165.248 134.378C160.653 129.943 153.599 129.552 149.49 133.491C148.787 134.169 148.247 134.952 147.814 135.787L31.9968 23.9804C33.3482 23.5369 34.5916 22.8065 35.6186 21.8152C39.727 17.8501 39.3216 11.0676 34.6997 6.60686C30.0778 2.14608 23.0503 1.78087 18.969 5.74601C16.4554 8.17204 15.6445 11.6676 16.4554 15.0328C12.9687 14.2502 9.34683 15.0328 6.83317 17.4588C2.72483 21.4239 3.13025 28.2064 7.75215 32.6672C11.7254 36.5019 17.5635 37.3106 21.6989 34.8845L136.922 146.091C134.408 150.108 135.246 155.717 139.219 159.551C143.814 163.986 150.869 164.377 154.977 160.438C157.193 158.247 158.058 155.195 157.626 152.169Z" fill="#AF75BD" stroke="white" stroke-width="5" stroke-miterlimit="10"/>
    <path d="M14.4518 151.292C14.0166 154.297 14.8869 157.328 17.1442 159.479C21.2781 163.417 28.3492 163.028 32.9998 158.598C37.6232 154.194 38.0311 147.432 33.9245 143.494C33.2174 142.82 32.4015 142.302 31.5312 141.887L148.123 30.8207C148.585 32.1161 149.346 33.3079 150.38 34.2924C154.514 38.2303 161.585 37.8417 166.235 33.4115C170.886 28.9813 171.267 22.2452 167.16 18.3073C164.631 15.8978 160.987 15.1206 157.478 15.8978C158.294 12.5557 157.478 9.08409 154.949 6.67467C150.815 2.73669 143.744 3.12531 139.093 7.55553C135.095 11.364 134.252 16.9601 136.782 20.9239L20.7886 131.421C16.6003 129.011 10.7531 129.814 6.75517 133.623C2.13177 138.027 1.72382 144.789 5.83049 148.727C8.115 150.877 11.2698 151.706 14.4518 151.292Z" fill="#AF75BD" stroke="white" stroke-width="5" stroke-miterlimit="10"/>
    <path d="M50.7083 130.547H124.319C124.019 127.078 123.229 123.736 122.002 120.601C131.841 111.631 138 98.9087 138 84.7729C138 57.6064 115.38 35.606 87.5 35.606C59.6201 35.606 37 57.6064 37 84.7729C37 98.9344 43.1865 111.631 52.9976 120.601C51.7984 123.736 51.0081 127.078 50.7083 130.547Z" fill="#AF75BD" stroke="white" stroke-width="5" stroke-miterlimit="10"/>
    <path d="M108.5 96.0234C114.299 96.0234 119 91.5151 119 85.9538C119 80.3926 114.299 75.8843 108.5 75.8843C102.701 75.8843 98 80.3926 98 85.9538C98 91.5151 102.701 96.0234 108.5 96.0234Z" fill="#AF75BD" stroke="white" stroke-width="5" stroke-miterlimit="10"/>
    <path d="M65 96.0234C71.0751 96.0234 76 91.5151 76 85.9538C76 80.3926 71.0751 75.8843 65 75.8843C58.9249 75.8843 54 80.3926 54 85.9538C54 91.5151 58.9249 96.0234 65 96.0234Z" fill="#AF75BD" stroke="white" stroke-width="5" stroke-miterlimit="10"/>

</svg>
