<svg width="146" height="224" viewBox="0 0 146 224" fill="none" xmlns="http://www.w3.org/2000/svg">
    <path d="M20 83.0703C20 83.0703 -18.25 142.599 20 142.599C58.25 142.599 20 83.0703 20 83.0703Z" fill="#3884FF" stroke="white" stroke-width="5" stroke-miterlimit="10"/>
    <path d="M20 161.14C20 161.14 -18.25 220.668 20 220.668C58.25 220.668 20 161.14 20 161.14Z" fill="#3884FF" stroke="white" stroke-width="5" stroke-miterlimit="10"/>
    <path d="M20 5C20 5 -18.25 64.5283 20 64.5283C58.25 64.5283 20 5 20 5Z" fill="#3884FF" stroke="white" stroke-width="5" stroke-miterlimit="10"/>
    <path d="M73 83.0703C73 83.0703 34.75 142.599 73 142.599C111.25 142.599 73 83.0703 73 83.0703Z" fill="#3884FF" stroke="white" stroke-width="5" stroke-miterlimit="10"/>
    <path d="M73 161.14C73 161.14 34.75 220.668 73 220.668C111.25 220.668 73 161.14 73 161.14Z" fill="#3884FF" stroke="white" stroke-width="5" stroke-miterlimit="10"/>
    <path d="M73 5C73 5 34.75 64.5283 73 64.5283C111.25 64.5283 73 5 73 5Z" fill="#3884FF" stroke="white" stroke-width="5" stroke-miterlimit="10"/>
    <path d="M126 83.0703C126 83.0703 87.75 142.599 126 142.599C164.25 142.599 126 83.0703 126 83.0703Z" fill="#3884FF" stroke="white" stroke-width="5" stroke-miterlimit="10"/>
    <path d="M126 161.14C126 161.14 87.75 220.668 126 220.668C164.25 220.668 126 161.14 126 161.14Z" fill="#3884FF" stroke="white" stroke-width="5" stroke-miterlimit="10"/>
    <path d="M126 5C126 5 87.75 64.5283 126 64.5283C164.25 64.5283 126 5 126 5Z" fill="#3884FF" stroke="white" stroke-width="5" stroke-miterlimit="10"/>
</svg>
