<svg width="276" height="271" viewBox="0 0 276 271" fill="none" xmlns="http://www.w3.org/2000/svg">

    <path d="M37 140.938C37 140.938 68.1027 138.567 84.3529 111C84.3529 111 89.8931 141.28 107.339 140.938" stroke="white" stroke-width="5" stroke-miterlimit="10"/>
    <path d="M107.339 140.938C107.339 140.938 138.442 138.567 154.692 111C154.692 111 160.232 141.28 177.678 140.938" stroke="white" stroke-width="5" stroke-miterlimit="10"/>
    <path d="M177.661 140.938C177.661 140.938 208.764 138.567 225.014 111C225.014 111 230.554 141.28 248 140.938" stroke="white" stroke-width="5" stroke-miterlimit="10"/>
    <path d="M37 181.416C37 181.416 68.1027 179.045 84.3529 151.479C84.3529 151.479 89.8931 181.759 107.339 181.416" stroke="white" stroke-width="5" stroke-miterlimit="10"/>
    <path d="M107.339 181.416C107.339 181.416 138.442 179.045 154.692 151.479C154.692 151.479 160.232 181.759 177.678 181.416" stroke="white" stroke-width="5" stroke-miterlimit="10"/>
    <path d="M177.661 181.416C177.661 181.416 208.764 179.045 225.014 151.479C225.014 151.479 230.554 181.759 248 181.416" stroke="white" stroke-width="5" stroke-miterlimit="10"/>

    <g>
    <path d="M100.906 61.4913C102.241 60.7993 103.246 59.612 103.53 58.1569C104.05 55.4922 102.043 52.9602 99.0261 52.4821C96.0271 52.0068 93.1719 53.7773 92.645 56.4319C92.556 56.8877 92.5588 57.34 92.6178 57.7831L17.0166 45.7926C17.4222 45.2514 17.7075 44.6279 17.8375 43.9617C18.3573 41.297 16.3505 38.765 13.3338 38.2869C10.3171 37.8088 7.47958 39.5821 6.9703 42.2395C6.65226 43.8699 7.28919 45.4528 8.52242 46.5429C6.95063 47.1884 5.75285 48.4806 5.43481 50.111C4.915 52.7758 6.92179 55.3078 9.93849 55.7859C12.5318 56.1969 15.0269 54.9205 15.9768 52.8481L91.1827 64.7669C91.2985 67.0173 93.1538 68.974 95.7471 69.385C98.7461 69.8603 101.601 68.0898 102.128 65.4352C102.394 63.9773 101.899 62.5524 100.906 61.4913Z" fill="#51B27E" stroke="white" stroke-width="5" stroke-miterlimit="10"/>
    <path d="M44.8844 100.177C45.5341 101.467 46.6994 102.41 48.165 102.633C50.8491 103.04 53.4982 100.961 54.1025 97.9676C54.7032 94.9913 53.0189 92.2456 50.3455 91.8307C49.8864 91.761 49.4272 91.7816 48.9752 91.8573L64.125 16.8028C64.6583 17.1814 65.2798 17.4382 65.9508 17.54C68.6349 17.9475 71.2839 15.8686 71.8882 12.8748C72.4925 9.88101 70.8047 7.15278 68.1313 6.73793C66.489 6.48864 64.8573 7.17923 63.7023 8.43839C63.1091 6.91386 61.8449 5.78367 60.2027 5.53438C57.5186 5.12695 54.8696 7.20586 54.2653 10.1996C53.7458 12.7732 54.9427 15.1834 57.0087 16.0383L41.9366 90.7076C39.648 90.9106 37.5888 92.8174 37.0693 95.391C36.4685 98.3673 38.1528 101.113 40.8263 101.528C42.3025 101.743 43.7576 101.206 44.8844 100.177Z" fill="#51B27E" stroke="white" stroke-width="5" stroke-miterlimit="10"/>
    <path d="M53.3557 82.2116L82.0353 62.1461C80.9727 60.876 79.754 59.7896 78.4215 58.9023C79.8095 52.7257 78.7413 46.09 74.888 40.5825C67.4827 29.9981 52.6726 27.5925 41.8102 35.1922C30.9478 42.792 28.1319 57.5297 35.5372 68.1141C39.3974 73.6316 45.2687 76.8919 51.5363 77.7123C51.9238 79.2608 52.5267 80.778 53.3557 82.2116Z" fill="#51B27E" stroke="white" stroke-width="5" stroke-miterlimit="10"/>
    <path d="M66.4615 53.0072C68.7209 51.4265 69.3235 48.3885 67.8076 46.2218C66.2916 44.0551 63.2311 43.58 60.9718 45.1608C58.7124 46.7415 58.1098 49.7794 59.6257 51.9462C61.1417 54.1129 64.2021 54.5879 66.4615 53.0072Z" fill="#51B27E" stroke="white" stroke-width="5" stroke-miterlimit="10"/>
    <path d="M49.5132 64.865C51.8802 63.209 52.5701 60.1101 51.0541 57.9433C49.5382 55.7766 46.3905 55.3626 44.0235 57.0186C41.6566 58.6746 40.9667 61.7736 42.4826 63.9403C43.9986 66.107 47.1463 66.5211 49.5132 64.865Z" fill="#51B27E" stroke="white" stroke-width="5" stroke-miterlimit="10"/>
    </g>

    <g>
    <path d="M221.684 144.146C222.597 145.34 223.941 146.123 225.424 146.149C228.138 146.197 230.282 143.78 230.228 140.726C230.174 137.69 227.934 135.187 225.228 135.13C224.764 135.122 224.319 135.203 223.893 135.338L222.544 58.8041C223.148 59.1094 223.811 59.2818 224.49 59.2939C227.205 59.342 229.349 56.9252 229.295 53.8714C229.24 50.8175 227 48.3318 224.295 48.2928C222.634 48.2633 221.186 49.166 220.327 50.5701C219.418 49.1346 217.937 48.18 216.276 48.1505C213.562 48.1024 211.417 50.5192 211.472 53.573C211.518 56.1983 213.209 58.4332 215.415 59.0079L216.766 135.141C214.57 135.646 212.966 137.814 213.013 140.439C213.066 143.475 215.307 145.978 218.013 146.035C219.494 146.044 220.812 145.308 221.684 144.146Z" fill="#51B27E" stroke="white" stroke-width="5" stroke-miterlimit="10"/>
    <path d="M173.839 95.7106C172.682 96.5748 171.956 97.8866 171.992 99.3686C172.057 102.083 174.566 104.329 177.619 104.404C180.654 104.477 183.065 102.341 183.008 99.6359C182.997 99.1717 182.897 98.7232 182.744 98.2912L259.289 100.149C259.009 100.74 258.865 101.397 258.881 102.075C258.947 104.789 261.455 107.036 264.508 107.11C267.562 107.184 269.955 105.047 269.898 102.342C269.857 100.682 268.893 99.1952 267.453 98.2769C268.851 97.4275 269.744 95.9859 269.703 94.3253C269.637 91.6113 267.129 89.3645 264.076 89.2904C261.451 89.2267 259.286 90.8248 258.804 93.008L182.651 91.1599C182.053 88.9416 179.817 87.2456 177.192 87.1819C174.157 87.1082 171.746 89.2446 171.803 91.9495C171.848 93.4406 172.63 94.7801 173.839 95.7106Z" fill="#51B27E" stroke="white" stroke-width="5" stroke-miterlimit="10"/>
    <path d="M193.004 100.926L217.755 125.677C218.82 124.409 219.678 123.02 220.32 121.553C226.644 121.845 232.992 119.639 237.745 114.886C246.879 105.752 246.671 90.7488 237.297 81.3747C227.923 72.0006 212.92 71.7923 203.786 80.9265C199.024 85.688 196.835 92.0371 197.118 98.3518C195.661 99.0029 194.272 99.8606 193.004 100.926Z" fill="#51B27E" stroke="white" stroke-width="5" stroke-miterlimit="10"/>
    <path d="M224.044 108.75C225.994 110.699 229.09 110.764 230.96 108.894C232.83 107.024 232.765 103.928 230.815 101.978C228.865 100.028 225.769 99.9636 223.899 101.833C222.029 103.703 222.094 106.8 224.044 108.75Z" fill="#51B27E" stroke="white" stroke-width="5" stroke-miterlimit="10"/>
    <path d="M209.418 94.1237C211.461 96.1664 214.632 96.3065 216.502 94.4366C218.372 92.5667 218.232 89.395 216.189 87.3524C214.147 85.3097 210.975 85.1696 209.105 87.0395C207.235 88.9094 207.375 92.0811 209.418 94.1237Z" fill="#51B27E" stroke="white" stroke-width="5" stroke-miterlimit="10"/>
    </g>


    <g>
    <path d="M100.906 180.491C102.241 179.799 103.246 178.612 103.53 177.157C104.05 174.492 102.043 171.96 99.0261 171.482C96.0271 171.007 93.1719 172.777 92.645 175.432C92.556 175.888 92.5588 176.34 92.6178 176.783L17.0166 164.793C17.4222 164.251 17.7075 163.628 17.8375 162.962C18.3573 160.297 16.3505 157.765 13.3338 157.287C10.3171 156.809 7.47958 158.582 6.9703 161.239C6.65226 162.87 7.28919 164.453 8.52242 165.543C6.95063 166.188 5.75285 167.481 5.43481 169.111C4.915 171.776 6.92179 174.308 9.93849 174.786C12.5318 175.197 15.0269 173.921 15.9768 171.848L91.1827 183.767C91.2985 186.017 93.1538 187.974 95.7471 188.385C98.7461 188.86 101.601 187.09 102.128 184.435C102.394 182.977 101.899 181.552 100.906 180.491Z" fill="#51B27E" stroke="white" stroke-width="5" stroke-miterlimit="10"/>
    <path d="M44.8844 219.177C45.5341 220.467 46.6994 221.41 48.165 221.633C50.8491 222.04 53.4982 219.961 54.1025 216.968C54.7032 213.991 53.0189 211.246 50.3455 210.831C49.8864 210.761 49.4272 210.782 48.9752 210.857L64.125 135.803C64.6583 136.181 65.2798 136.438 65.9508 136.54C68.6349 136.947 71.2839 134.869 71.8882 131.875C72.4925 128.881 70.8047 126.153 68.1313 125.738C66.489 125.489 64.8573 126.179 63.7023 127.438C63.1091 125.914 61.8449 124.784 60.2027 124.534C57.5186 124.127 54.8696 126.206 54.2653 129.2C53.7458 131.773 54.9427 134.183 57.0087 135.038L41.9366 209.708C39.648 209.911 37.5888 211.817 37.0693 214.391C36.4685 217.367 38.1528 220.113 40.8263 220.528C42.3025 220.743 43.7576 220.206 44.8844 219.177Z" fill="#51B27E" stroke="white" stroke-width="5" stroke-miterlimit="10"/>
    <path d="M53.3557 201.212L82.0353 181.146C80.9727 179.876 79.754 178.79 78.4215 177.902C79.8095 171.726 78.7413 165.09 74.888 159.583C67.4827 148.998 52.6726 146.592 41.8102 154.192C30.9478 161.792 28.1319 176.53 35.5372 187.114C39.3974 192.632 45.2687 195.892 51.5363 196.712C51.9238 198.261 52.5267 199.778 53.3557 201.212Z" fill="#51B27E" stroke="white" stroke-width="5" stroke-miterlimit="10"/>
    <path d="M66.4615 172.007C68.7209 170.426 69.3235 167.389 67.8076 165.222C66.2916 163.055 63.2311 162.58 60.9718 164.161C58.7124 165.742 58.1098 168.779 59.6257 170.946C61.1417 173.113 64.2021 173.588 66.4615 172.007Z" fill="#51B27E" stroke="white" stroke-width="5" stroke-miterlimit="10"/>
    <path d="M49.5132 183.865C51.8802 182.209 52.5701 179.11 51.0541 176.943C49.5382 174.777 46.3905 174.363 44.0235 176.019C41.6566 177.675 40.9667 180.774 42.4826 182.94C43.9986 185.107 47.1463 185.521 49.5132 183.865Z" fill="#51B27E" stroke="white" stroke-width="5" stroke-miterlimit="10"/>
    </g>


    <g>
    <path d="M221.684 263.146C222.597 264.34 223.941 265.123 225.424 265.149C228.138 265.197 230.282 262.78 230.228 259.726C230.174 256.69 227.934 254.187 225.228 254.13C224.764 254.122 224.319 254.203 223.893 254.338L222.544 177.804C223.148 178.109 223.811 178.282 224.49 178.294C227.205 178.342 229.349 175.925 229.295 172.871C229.24 169.817 227 167.332 224.295 167.293C222.634 167.263 221.186 168.166 220.327 169.57C219.418 168.135 217.937 167.18 216.276 167.151C213.562 167.102 211.417 169.519 211.472 172.573C211.518 175.198 213.209 177.433 215.415 178.008L216.766 254.141C214.57 254.646 212.966 256.814 213.013 259.439C213.066 262.475 215.307 264.978 218.013 265.035C219.494 265.044 220.812 264.308 221.684 263.146Z" fill="#51B27E" stroke="white" stroke-width="5" stroke-miterlimit="10"/>
    <path d="M173.839 214.711C172.682 215.575 171.956 216.887 171.992 218.369C172.057 221.083 174.566 223.329 177.619 223.404C180.654 223.477 183.065 221.341 183.008 218.636C182.997 218.172 182.897 217.723 182.744 217.291L259.289 219.149C259.009 219.74 258.865 220.397 258.881 221.075C258.947 223.789 261.455 226.036 264.508 226.11C267.562 226.184 269.955 224.047 269.898 221.342C269.857 219.682 268.893 218.195 267.453 217.277C268.851 216.427 269.744 214.986 269.703 213.325C269.637 210.611 267.129 208.364 264.076 208.29C261.451 208.227 259.286 209.825 258.804 212.008L182.651 210.16C182.053 207.942 179.817 206.246 177.192 206.182C174.157 206.108 171.746 208.245 171.803 210.949C171.848 212.441 172.63 213.78 173.839 214.711Z" fill="#51B27E" stroke="white" stroke-width="5" stroke-miterlimit="10"/>
    <path d="M193.004 219.926L217.755 244.677C218.82 243.409 219.678 242.02 220.32 240.553C226.644 240.845 232.992 238.639 237.745 233.886C246.879 224.752 246.671 209.749 237.297 200.375C227.923 191.001 212.92 190.792 203.786 199.926C199.024 204.688 196.835 211.037 197.118 217.352C195.661 218.003 194.272 218.861 193.004 219.926Z" fill="#51B27E" stroke="white" stroke-width="5" stroke-miterlimit="10"/>
    <path d="M224.044 227.75C225.994 229.7 229.09 229.764 230.96 227.895C232.83 226.025 232.765 222.928 230.815 220.978C228.865 219.029 225.769 218.964 223.899 220.834C222.029 222.704 222.094 225.8 224.044 227.75Z" fill="#51B27E" stroke="white" stroke-width="5" stroke-miterlimit="10"/>
    <path d="M209.418 213.124C211.461 215.166 214.632 215.306 216.502 213.437C218.372 211.567 218.232 208.395 216.189 206.352C214.147 204.31 210.975 204.17 209.105 206.04C207.235 207.909 207.375 211.081 209.418 213.124Z" fill="#51B27E" stroke="white" stroke-width="5" stroke-miterlimit="10"/>
    </g>

</svg>
