<svg width="54" height="54" viewBox="0 0 54 54" fill="none" xmlns="http://www.w3.org/2000/svg">
<path d="M35.0093 19.9768C33.8969 19.0915 31.4293 17.7144 26.9999 17.7144C22.5705 17.7144 20.1029 19.0915 18.9905 19.9768H13.4285C13.4285 24.8754 18.2422 23.1638 18.2422 23.1638C17.9995 33.2561 21.9839 35.7153 26.9999 36.2858C32.0159 35.6956 36.0003 33.2364 35.7576 23.1638C35.7576 23.1638 40.5713 24.8754 40.5713 19.9768H35.0093Z" stroke="white" stroke-width="3" stroke-miterlimit="10"/>
<path d="M31.9841 2H22.0359L12.8453 5.80782L5.80782 12.8453L2 22.0359V31.9841L5.80782 41.1746L12.8453 48.2121L22.0359 52H31.9841L41.1746 48.2121L48.2121 41.1746L52 31.9841V22.0359L48.2121 12.8453L41.1746 5.80782L31.9841 2Z" stroke="white" stroke-width="3" stroke-miterlimit="10"/>
</svg>
