<svg width="54" height="44" viewBox="0 0 54 44" fill="none" xmlns="http://www.w3.org/2000/svg">
<path d="M47.3916 17.4583C47.3916 4.79246 36.5313 9.06094 36.5313 9.06094C36.5313 -0.353645 17.4508 -0.353645 17.4508 9.06094C17.4508 9.06094 6.59052 4.81241 6.59052 17.4583C0.430368 18.9143 -1.86969 39.8777 14.9707 37.2448C14.9707 37.2448 18.4308 44.6848 27.011 41.5532C35.5713 44.6848 39.0513 37.2448 39.0513 37.2448C55.8718 39.8777 53.5717 18.9143 47.3916 17.4583Z" stroke="white" stroke-width="3" stroke-miterlimit="10"/>
<path d="M32.5407 28.3864C32.5407 28.3864 29.1698 21.457 27.3829 21.457C25.5959 21.457 22.2251 28.3864 22.2251 28.3864C19.5446 26.2854 13.2903 27.8612 13.2903 27.8612C13.2903 46.7907 27.4032 41.8412 27.4032 41.8412C27.4032 41.8412 41.5161 46.7907 41.5161 27.8612C41.4958 27.8612 35.2414 26.2854 32.5407 28.3864Z" stroke="white" stroke-width="3" stroke-miterlimit="10"/>
</svg>
