<svg class="jean" width="126" height="222" viewBox="0 0 126 222" fill="none" xmlns="http://www.w3.org/2000/svg">
<path class="jean" d="M36.4647 219.283H8.24376C5.38896 219.283 3.11363 216.897 3.24942 214.046L13.0724 7.76217C13.1994 5.09623 15.3978 3 18.0668 3H113.354C116.076 3 118.298 5.17689 118.353 7.89798L122.563 214.181C122.62 216.982 120.365 219.283 117.564 219.283H87.3519C84.8318 219.283 82.7056 217.408 82.391 214.908L68.3145 103.018C67.5898 97.2574 59.2804 97.1522 58.4101 102.893L41.4082 215.033C41.0377 217.477 38.9367 219.283 36.4647 219.283Z" stroke="white" stroke-width="5"/>
<path class="jean" d="M21.5625 33.9393C27.7747 33.3671 39.2183 29.3782 35.2948 18" stroke="white" stroke-width="5"/>
<path class="jean" d="M12.5636 7.41394L63.0788 9.13048L117.272 7.41394" stroke="white" stroke-width="5"/>
<ellipse class="jean" cx="64.7953" cy="6.06526" rx="1.47132" ry="1.34871" fill="white"/>
<rect class="jean" x="51.3082" y="3" width="2.45219" height="5.88526" rx="1.2261" fill="white"/>
<rect class="jean" x="75.8302" y="3" width="2.45219" height="5.88526" rx="1.2261" fill="white"/>
<path class="jean" d="M62.4925 12.2581C61.8964 23.6405 61.296 47.4836 63.6622 51.7972" stroke="white" stroke-width="5"/>
<path class="jean" d="M106.096 35.9393C99.8835 35.3671 88.4399 31.3782 92.3634 20" stroke="white" stroke-width="5"/>
<path class="jean" d="M3.49048 214.379H41.2543M82.2059 214.379H122.912" stroke="white" stroke-width="5"/>

</svg>
