<svg width="82" height="84" viewBox="0 0 82 84" fill="none" xmlns="http://www.w3.org/2000/svg">
<path d="M3.26683 53.107C3.54537 53.5104 3.90231 53.8534 4.31633 54.1157L2.92729 56.152C1.55539 55.4212 0.651088 54.1009 0.214369 52.1909C-0.0599876 51.1021 -0.0711566 49.9637 0.181786 48.8697C0.407458 47.8944 0.907976 47.0043 1.62399 46.305C2.35542 45.6052 3.26671 45.1224 4.25631 44.9103C5.23443 44.6695 6.25977 44.7009 7.22131 45.0012C8.15123 45.2933 8.98218 45.8372 9.62213 46.5726C10.3026 47.3538 10.7746 48.2945 10.994 49.3071C11.2282 50.2576 11.2282 51.2508 10.994 52.2012C10.765 53.1161 10.2837 53.9483 9.60498 54.6029C8.85772 55.3089 7.9282 55.7919 6.92121 55.9977L3.60637 48.5335C3.15114 48.8528 2.82081 49.3203 2.67177 49.8561C2.51953 50.4625 2.52366 51.0976 2.68378 51.702C2.79038 52.2021 2.98801 52.6784 3.26683 53.107ZM7.50084 48.132C6.89263 47.7638 6.14952 47.6671 5.27151 47.8421L7.45796 52.7519C7.95689 52.4999 8.35054 52.0793 8.5692 51.5648C8.79348 51.0209 8.835 50.4188 8.68752 49.8493C8.62085 49.4957 8.48079 49.16 8.27639 48.8639C8.07199 48.5678 7.80778 48.3179 7.50084 48.1303V48.132Z" fill="white"/>
<path d="M5.65048 63.6712C5.51222 62.6856 5.65179 61.6809 6.05347 60.7703C6.46944 59.8455 7.13671 59.0561 7.97927 58.4921C8.80275 57.9017 9.77543 57.5546 10.7865 57.4902C11.78 57.4331 12.7697 57.6553 13.6435 58.1318C14.592 58.6465 15.4013 59.3842 16.0014 60.2814C16.6144 61.124 16.999 62.1109 17.1178 63.1463C17.2155 64.0899 16.9952 65.0391 16.4919 65.8431L14.0293 64.5856C14.5232 63.5563 14.466 62.6053 13.8578 61.7327C13.6554 61.4174 13.3909 61.1467 13.0804 60.937C12.7699 60.7273 12.4201 60.583 12.0521 60.513C11.3067 60.3769 10.5527 60.573 9.79017 61.1014C9.02762 61.6298 8.57947 62.2674 8.44571 63.0142C8.37944 63.3847 8.38968 63.7649 8.4758 64.1313C8.56192 64.4978 8.72209 64.8427 8.94645 65.1449C9.55923 66.0266 10.4298 66.4115 11.5582 66.2994L11.8531 69.0597C10.9304 69.2286 9.97771 69.0931 9.13852 68.6737C8.20616 68.2053 7.41315 67.5001 6.83888 66.6288C6.20939 65.7536 5.80158 64.7387 5.65048 63.6712V63.6712Z" fill="white"/>
<path d="M15.5522 74.7654C15.0659 73.9061 14.8284 72.9284 14.8662 71.9417C14.9274 70.9332 15.2506 69.9581 15.804 69.113C16.3574 68.2678 17.1218 67.5818 18.0216 67.1228C18.9108 66.6941 19.9021 66.5224 20.8837 66.627C21.939 66.756 22.9506 67.1262 23.84 67.709C24.7294 68.2918 25.4729 69.0715 26.0128 69.9877C26.4969 70.8454 26.7343 71.8203 26.6988 72.8046C26.6383 73.813 26.3155 74.7882 25.7624 75.6334C25.2092 76.4787 24.4449 77.1647 23.5452 77.6235C22.6582 78.0518 21.6697 78.2252 20.6899 78.1244C19.6322 78.014 18.6182 77.6432 17.7386 77.0453C16.8339 76.4762 16.0831 75.6932 15.5522 74.7654V74.7654ZM21.2472 75.2938C21.9778 75.1222 22.5928 74.6545 23.0924 73.8905C23.592 73.1265 23.7749 72.3757 23.6412 71.638C23.5754 71.2741 23.4333 70.9282 23.2244 70.623C23.0154 70.3179 22.7443 70.0605 22.4288 69.8676C22.1246 69.6551 21.7793 69.5088 21.4151 69.4381C21.0508 69.3675 20.6758 69.3742 20.3143 69.4576C19.5792 69.6257 18.9613 70.0918 18.4606 70.8558C17.9598 71.6197 17.7798 72.3723 17.9204 73.1134C17.9881 73.4784 18.1319 73.8251 18.3422 74.131C18.5526 74.4369 18.8248 74.6951 19.1414 74.8889C19.4439 75.1013 19.788 75.2471 20.151 75.3169C20.5139 75.3867 20.8875 75.3788 21.2472 75.2938V75.2938Z" fill="white"/>
<path d="M40.8515 73.3089L39.0886 84L36.1494 83.5145L36.3586 82.2433C35.878 82.6357 35.3163 82.9164 34.714 83.065C34.0887 83.2157 33.4391 83.2367 32.8054 83.1268C31.4026 82.8981 30.3571 82.3102 29.6689 81.3633C28.9807 80.4163 28.7674 79.1497 29.0292 77.5634L30.0256 71.5231L33.1243 72.0377L32.2035 77.6217C31.9199 79.3441 32.5001 80.3242 33.944 80.5621C34.2742 80.6309 34.6153 80.6281 34.9442 80.5538C35.2732 80.4795 35.5824 80.3355 35.851 80.1315C36.3803 79.7232 36.7233 79.0416 36.8799 78.0866L37.7562 72.7977L40.8515 73.3089Z" fill="white"/>
<path d="M51.434 81.7853C51.1403 82.0865 50.7908 82.3277 50.4051 82.4956C49.9762 82.6911 49.5245 82.8323 49.0606 82.9158C47.7791 83.1514 46.7364 83.0085 45.9327 82.487C45.129 81.9655 44.6111 81.078 44.3791 79.8245L42.6642 70.4749L45.7509 69.9071L46.2277 72.5027L48.8634 72.0069L49.3007 74.3829L46.6735 74.8735L47.4624 79.2121C47.5064 79.5938 47.6955 79.9439 47.9906 80.1899C48.1399 80.2939 48.3098 80.3646 48.4888 80.3972C48.6678 80.4297 48.8517 80.4234 49.0281 80.3786C49.4855 80.3034 49.9065 80.0826 50.2285 79.749L51.434 81.7853Z" fill="white"/>
<path d="M60.2467 66.0626L65.6382 75.4602L63.0539 76.9441L62.4126 75.8256C62.2885 76.4337 62.0301 77.0064 61.6563 77.5017C61.2679 78.0146 60.7782 78.442 60.2175 78.7574C58.9851 79.4654 57.8036 79.6718 56.6729 79.3767C55.5422 79.0817 54.5768 78.2348 53.7765 76.8361L50.7309 71.5265L53.4541 69.962L56.2768 74.8701C57.1456 76.3843 58.2146 76.7772 59.4836 76.0486C59.7824 75.8921 60.0441 75.6732 60.2512 75.4069C60.4582 75.1405 60.6058 74.8329 60.684 74.5047C60.8349 73.8528 60.6703 73.1094 60.1901 72.2745L57.5235 67.6272L60.2467 66.0626Z" fill="white"/>
<path d="M64.8185 60.9332C65.0543 60.2164 65.4316 59.5542 65.9281 58.9861L68.1471 60.856C67.9024 61.1065 67.7412 61.278 67.6635 61.3706C67.0839 62.0569 66.8232 62.7585 66.8815 63.4756C66.9398 64.1927 67.3537 64.8737 68.1231 65.5188L72.0364 68.8108L70.0163 71.2126L61.7249 64.2407L63.6507 61.9419L64.7465 62.8614C64.5882 62.2248 64.6132 61.5563 64.8185 60.9332V60.9332Z" fill="white"/>
<path d="M77.0164 54.6801C77.0165 54.1901 76.9174 53.7051 76.7249 53.2545L79.0228 52.3659C79.735 53.7383 79.7316 55.3395 79.0125 57.1693C78.6224 58.2216 77.9869 59.1656 77.1587 59.9227C76.4199 60.5989 75.5028 61.049 74.5161 61.2197C73.5173 61.3813 72.4933 61.2625 71.558 60.8766C70.6161 60.5197 69.7891 59.913 69.1657 59.1216C68.5626 58.352 68.184 57.4306 68.0717 56.4591C67.956 55.4312 68.1023 54.3908 68.4969 53.4347C68.8438 52.5186 69.4075 51.7004 70.1398 51.0501C70.8461 50.4277 71.7131 50.0164 72.6418 49.863C73.6572 49.7045 74.6968 49.8334 75.6428 50.2352L74.1474 58.2604C74.7027 58.2552 75.2391 58.0576 75.6651 57.7012C76.1318 57.2869 76.4858 56.761 76.694 56.1726C76.8932 55.6995 77.0025 55.1933 77.0164 54.6801V54.6801ZM70.7091 56.3819C71.0018 57.0304 71.5614 57.5325 72.388 57.8881L73.3672 52.6027C72.8145 52.5255 72.2524 52.6471 71.7809 52.9458C71.2847 53.267 70.9071 53.7417 70.7057 54.2976C70.561 54.6267 70.4866 54.9823 70.4872 55.3418C70.4878 55.7013 70.5634 56.0567 70.7091 56.3854V56.3819Z" fill="white"/>
<path d="M77.8138 32.9841C77.5483 32.5725 77.2024 32.2189 76.7969 31.9445L78.2477 29.951C79.5921 30.7253 80.4553 32.0737 80.8371 33.9962C81.0782 35.0925 81.0547 36.2304 80.7685 37.3158C80.5147 38.2828 79.9899 39.1572 79.256 39.8358C78.5027 40.5123 77.5767 40.9666 76.5808 41.1482C75.596 41.3578 74.5727 41.2949 73.621 40.9664C72.6979 40.646 71.8812 40.0767 71.2613 39.3212C70.6079 38.5186 70.1678 37.5638 69.982 36.5455C69.7781 35.5882 69.8093 34.5957 70.0729 33.6531C70.331 32.7472 70.8378 31.9318 71.5357 31.2994C72.3039 30.6165 73.2478 30.1619 74.2606 29.9871L77.3474 37.5456C77.8122 37.2413 78.1566 36.7846 78.3214 36.2538C78.492 35.6522 78.5074 35.0171 78.366 34.408C78.2716 33.9032 78.0844 33.4204 77.8138 32.9841V32.9841ZM73.4255 37.8304C74.0222 38.2181 74.7653 38.3371 75.6548 38.1872L73.6192 33.2122C73.1138 33.4498 72.7082 33.858 72.4737 34.3651C72.2315 34.903 72.1713 35.5053 72.3022 36.0806C72.3579 36.4342 72.4866 36.7724 72.6799 37.0736C72.8733 37.3749 73.1272 37.6326 73.4255 37.8304V37.8304Z" fill="white"/>
<path d="M75.7577 22.3564C75.866 23.3461 75.6949 24.3463 75.2638 25.2437C74.806 26.1456 74.1178 26.9103 73.269 27.4602C72.4203 28.01 71.4413 28.3255 70.4313 28.3745C69.4363 28.3995 68.454 28.1464 67.5949 27.6437C66.6615 27.0974 65.8751 26.332 65.3038 25.4135C64.7163 24.5522 64.3618 23.5534 64.2749 22.5143C64.204 21.5692 64.4515 20.6276 64.978 19.8398L67.4011 21.1745C66.8729 22.1866 66.8975 23.1381 67.4748 24.0291C67.6687 24.3514 67.9268 24.6304 68.233 24.8488C68.5392 25.0672 68.8871 25.2203 69.2549 25.2985C69.998 25.4575 70.7582 25.286 71.5357 24.7839C72.3131 24.2818 72.7812 23.6585 72.9401 22.914C73.0185 22.5461 73.0208 22.166 72.9467 21.7972C72.8727 21.4284 72.724 21.0787 72.5097 20.7696C71.9266 19.8672 71.0692 19.4549 69.9374 19.5327L69.7316 16.7673C70.6594 16.6258 71.6081 16.7902 72.4342 17.2356C73.3494 17.7344 74.118 18.4643 74.6636 19.3526C75.2669 20.25 75.6424 21.2811 75.7577 22.3564V22.3564Z" fill="white"/>
<path d="M66.199 10.9535C66.6604 11.8271 66.8694 12.812 66.8026 13.7978C66.7105 14.8038 66.3576 15.7684 65.7786 16.5961C65.1996 17.4238 64.4147 18.086 63.5015 18.5172C62.5987 18.9174 61.6022 19.0582 60.6239 18.9237C59.5733 18.7623 58.5739 18.3614 57.703 17.7518C56.832 17.1423 56.1129 16.3406 55.6011 15.4087C55.1448 14.5359 54.9389 13.5538 55.006 12.5712C55.083 11.5606 55.4392 10.5913 56.0349 9.77148C56.5994 8.93164 57.3861 8.26524 58.3071 7.84667C59.2067 7.44567 60.2 7.30254 61.1761 7.43324C62.2297 7.57589 63.2314 7.9779 64.0914 8.60322C64.9767 9.20107 65.7006 10.0084 66.199 10.9535V10.9535ZM60.5245 10.2484C59.7894 10.3982 59.1606 10.8471 58.6381 11.5951C58.1156 12.343 57.9099 13.0864 58.0208 13.8252C58.0752 14.1908 58.2065 14.5407 58.4061 14.8518C58.6056 15.1629 58.8688 15.4281 59.1783 15.63C59.4757 15.8519 59.8163 16.0089 60.1782 16.0907C60.5401 16.1726 60.9151 16.1775 61.279 16.1052C62.0198 15.9588 62.6486 15.5122 63.1654 14.7653C63.6821 14.0185 63.885 13.2717 63.7741 12.5249C63.7182 12.1604 63.5868 11.8116 63.3884 11.5008C63.19 11.1901 62.9288 10.9242 62.6218 10.7202C62.3256 10.4972 61.9855 10.3398 61.6239 10.2584C61.2623 10.1771 60.8875 10.1737 60.5245 10.2484V10.2484Z" fill="white"/>
<path d="M40.8687 11.6311L42.9626 0.994873L45.8864 1.57129L45.6446 2.84077C46.1365 2.4628 46.7066 2.19962 47.3132 2.0705C47.9433 1.94003 48.5934 1.94003 49.2235 2.0705C50.6194 2.34727 51.6484 2.96714 52.3103 3.93012C52.9722 4.89309 53.1437 6.166 52.8248 7.74885L51.6415 13.7532L48.5547 13.1459L49.6488 7.59446C49.9849 5.87894 49.4356 4.88108 48.0008 4.60088C47.6731 4.5216 47.3322 4.51365 47.0011 4.57758C46.6701 4.64151 46.3566 4.77582 46.0819 4.97144C45.5377 5.36486 45.173 6.03563 44.9878 6.98373L43.9589 12.2401L40.8687 11.6311Z" fill="white"/>
<path d="M30.5538 2.83559C30.8551 2.54082 31.211 2.30772 31.6016 2.14939C32.0357 1.97045 32.4901 1.84543 32.9546 1.77712C34.2419 1.58155 35.2799 1.75653 36.0688 2.30207C36.8576 2.8476 37.3475 3.7511 37.5384 5.01258L38.9635 14.4119L35.8699 14.8802L35.4737 12.2709L32.826 12.6723L32.4573 10.2878L35.105 9.88464L34.4431 5.5238C34.4099 5.14141 34.232 4.78613 33.9458 4.53052C33.7998 4.42265 33.6326 4.34712 33.4552 4.30896C33.2777 4.2708 33.0942 4.27089 32.9169 4.30922C32.4596 4.37258 32.0344 4.57987 31.7027 4.90107L30.5538 2.83559Z" fill="white"/>
<path d="M21.2592 18.277L16.1609 8.7164L18.7898 7.31311L19.3968 8.45049C19.5394 7.84639 19.8154 7.2819 20.2045 6.79845C20.6095 6.30148 21.112 5.89279 21.681 5.5976C22.9386 4.92626 24.1259 4.75471 25.2428 5.08294C26.3598 5.41118 27.2989 6.28666 28.0603 7.70939L30.9396 13.1115L28.1684 14.5886L25.5069 9.59646C24.6849 8.05593 23.6286 7.62991 22.3378 8.3184C22.034 8.46492 21.765 8.67485 21.5491 8.93407C21.3332 9.1933 21.1753 9.49579 21.086 9.82119C20.9145 10.4685 21.0557 11.2188 21.5096 12.0719L24.0373 16.7982L21.2592 18.277Z" fill="white"/>
<path d="M16.533 23.2588C16.2747 23.9687 15.8771 24.6196 15.3635 25.1734L13.2027 23.24C13.4548 22.9964 13.6212 22.8317 13.7018 22.7408C14.302 22.0694 14.5843 21.3763 14.5489 20.6616C14.5135 19.9468 14.1208 19.2525 13.3708 18.5789L9.56036 15.1685L11.6542 12.8217L19.7261 20.0457L17.7266 22.2759L16.6633 21.334C16.8019 21.9751 16.7567 22.6423 16.533 23.2588Z" fill="white"/>
<path d="M4.14487 29.1311C4.12958 29.6205 4.21419 30.1079 4.39353 30.5635L2.0716 31.3835C1.4028 29.986 1.45539 28.3848 2.22937 26.5801C2.65178 25.5403 3.31611 24.6164 4.16717 23.885C4.92586 23.2317 5.8562 22.8101 6.8475 22.6704C7.85174 22.5424 8.87179 22.6962 9.79364 23.1147C10.7247 23.4992 11.533 24.131 12.131 24.9418C12.7107 25.7287 13.0609 26.661 13.1428 27.6351C13.2122 28.6379 13.0469 29.6431 12.6599 30.5708C12.2729 31.4985 11.6749 32.323 10.9135 32.979C10.1877 33.5789 9.30849 33.9634 8.37545 34.0889C7.35486 34.2169 6.31885 34.0564 5.38472 33.6257L7.12874 25.6486C6.57009 25.6352 6.02427 25.8172 5.58536 26.1632C5.10443 26.5627 4.73221 27.0773 4.50328 27.6591C4.29487 28.1237 4.1734 28.6226 4.14487 29.1311ZM10.5019 27.6248C10.2286 26.9661 9.68446 26.4468 8.86933 26.0671L7.72894 31.3201C8.27966 31.4122 8.84522 31.3065 9.32548 31.0215C9.83066 30.7149 10.222 30.2517 10.4401 29.7023C10.5948 29.3796 10.6805 29.0282 10.6917 28.6704C10.703 28.3127 10.6395 27.9566 10.5053 27.6248H10.5019Z" fill="white"/>
</svg>
