<svg width="140" height="186" viewBox="0 0 140 186" fill="none" xmlns="http://www.w3.org/2000/svg">
<path d="M80.1345 178.927C72.0885 177.809 30.3818 104.239 10.5342 67.5935C30.2519 46.2744 59.7956 34.9451 72.1028 31.9453C93.5313 68.3631 135.604 142.684 132.468 148.626C128.547 156.054 90.192 180.325 80.1345 178.927Z" stroke="white" stroke-width="5"/>
<path d="M18.3638 50.789L22.3164 57.6155C29.0612 51.7215 47.0504 42.4659 55.2018 38.5748L51.2493 31.7483C36.4956 35.8712 23.1783 46.1599 18.3638 50.789Z" stroke="white" stroke-width="5"/>
<path d="M16.7136 42.3707L26.3861 36.7703L34.7046 31.9539L43.9902 26.5776C41.3411 19.504 33.9257 8.15396 30.5491 3.36313C18.0304 8.1522 7.14852 15.8874 3.27243 19.1563C5.41129 25.7055 13.1244 37.3614 16.7136 42.3707Z" fill="#36B9C5" stroke="white" stroke-width="5"/>
<path d="M25.5493 37.2549L29.0568 43.3127M35.9342 31.242L39.4417 37.2999" stroke="white" stroke-width="5"/>
<path d="M18.9443 20.8574C19.5913 21.9748 19.7805 23.1106 19.6648 23.9898C19.5496 24.8656 19.1697 25.349 18.785 25.5717C18.4004 25.7943 17.7921 25.8832 16.9752 25.5471C16.1551 25.2098 15.2643 24.4802 14.6173 23.3627C13.9702 22.2452 13.781 21.1094 13.8967 20.2302C14.012 19.3544 14.3919 18.8711 14.7765 18.6484C15.1611 18.4257 15.7694 18.3369 16.5863 18.6729C17.4064 19.0103 18.2973 19.7399 18.9443 20.8574Z" stroke="white" stroke-width="5"/>
<path d="M89.1095 61.2141C56.9187 63.9836 34.1572 86.4194 26.8002 97.2912L51.2816 139.573C94.8293 147.165 115.108 112.197 111.827 102.229" stroke="white" stroke-width="5"/>
<path d="M84.97 92.9813C90.5126 102.554 87.9162 113.808 80.029 118.375C72.1417 122.942 61.0888 119.59 55.5462 110.018C50.0036 100.445 52.6 89.1908 60.4872 84.6241C68.3745 80.0574 79.4274 83.4086 84.97 92.9813Z" fill="#51B27E" stroke="white" stroke-width="5"/>
</svg>
