<svg width="54" height="60" viewBox="0 0 54 60" fill="none" xmlns="http://www.w3.org/2000/svg">
<path d="M8.83472 19.6074L27.1801 8.40723" stroke="white" stroke-width="3" stroke-miterlimit="10"/>
<path d="M27.1797 51.498L45.549 40.2979" stroke="white" stroke-width="3" stroke-miterlimit="10"/>
<path d="M8.83455 26.4715C12.6092 26.4715 15.6691 23.3981 15.6691 19.6068C15.6691 15.8156 12.6092 12.7422 8.83455 12.7422C5.05993 12.7422 2 15.8156 2 19.6068C2 23.3981 5.05993 26.4715 8.83455 26.4715Z" fill="#51B27E" stroke="white" stroke-width="3" stroke-miterlimit="10"/>
<path d="M27.1795 58.3621C30.9541 58.3621 34.0141 55.2887 34.0141 51.4974C34.0141 47.7062 30.9541 44.6328 27.1795 44.6328C23.4049 44.6328 20.345 47.7062 20.345 51.4974C20.345 55.2887 23.4049 58.3621 27.1795 58.3621Z" fill="#51B27E" stroke="white" stroke-width="3" stroke-miterlimit="10"/>
<path d="M45.1654 47.7395C48.94 47.7395 51.9999 44.6661 51.9999 40.8749C51.9999 37.0837 48.94 34.0103 45.1654 34.0103C41.3907 34.0103 38.3308 37.0837 38.3308 40.8749C38.3308 44.6661 41.3907 47.7395 45.1654 47.7395Z" fill="#51B27E" stroke="white" stroke-width="3" stroke-miterlimit="10"/>
<path d="M26.9881 15.7293C30.7627 15.7293 33.8227 12.6559 33.8227 8.86464C33.8227 5.0734 30.7627 2 26.9881 2C23.2135 2 20.1536 5.0734 20.1536 8.86464C20.1536 12.6559 23.2135 15.7293 26.9881 15.7293Z" fill="#51B27E" stroke="white" stroke-width="3" stroke-miterlimit="10"/>
<path d="M8.83455 47.7395C12.6092 47.7395 15.6691 44.6661 15.6691 40.8749C15.6691 37.0837 12.6092 34.0103 8.83455 34.0103C5.05993 34.0103 2 37.0837 2 40.8749C2 44.6661 5.05993 47.7395 8.83455 47.7395Z" fill="#51B27E" stroke="white" stroke-width="3" stroke-miterlimit="10"/>
<path d="M45.1654 26.4715C48.94 26.4715 51.9999 23.3981 51.9999 19.6068C51.9999 15.8156 48.94 12.7422 45.1654 12.7422C41.3907 12.7422 38.3308 15.8156 38.3308 19.6068C38.3308 23.3981 41.3907 26.4715 45.1654 26.4715Z" fill="#51B27E" stroke="white" stroke-width="3" stroke-miterlimit="10"/>
</svg>
