<svg width="188" height="147" viewBox="0 0 188 147" fill="none" xmlns="http://www.w3.org/2000/svg">
<path d="M168.435 57.0298C168.435 12.7602 128.854 27.6794 128.854 27.6794C128.854 -5.22647 59.3124 -5.22647 59.3124 27.6794C59.3124 27.6794 19.7308 12.8299 19.7308 57.0298C-2.72073 62.1191 -11.1036 135.39 50.2735 126.188C50.2735 126.188 62.8843 152.192 94.156 141.247C125.355 152.192 138.038 126.188 138.038 126.188C199.343 135.39 190.96 62.1191 168.435 57.0298Z" stroke="white" stroke-width="5" stroke-miterlimit="10"/>
<path d="M112.141 94.8678C112.141 94.8678 100.161 70.629 93.8097 70.629C87.4586 70.629 75.4782 94.8678 75.4782 94.8678C65.9517 87.5184 43.723 93.0304 43.723 93.0304C43.723 159.245 93.8818 141.932 93.8818 141.932C93.8818 141.932 144.041 159.245 144.041 93.0304C143.968 93.0304 121.74 87.5184 112.141 94.8678Z" stroke="white" stroke-width="5" stroke-miterlimit="10"/>
</svg>
